<?xml version="1.0" standalone="no"?>
<!DOCTYPE svg PUBLIC "-//W3C//DTD SVG 20010904//EN"
 "http://www.w3.org/TR/2001/REC-SVG-20010904/DTD/svg10.dtd">
<svg version="1.0" xmlns="http://www.w3.org/2000/svg"
 width="512.000000pt" height="512.000000pt" viewBox="0 0 512.000000 512.000000"
 preserveAspectRatio="xMidYMid meet">
<metadata>
Created by potrace 1.11, written by Peter Selinger 2001-2013
</metadata>
<g transform="translate(0.000000,512.000000) scale(0.100000,-0.100000)"
fill="#000000" stroke="none">
<path d="M2487 4804 c-1 -1 -32 -4 -69 -8 -323 -29 -664 -148 -938 -326 -508
-332 -851 -877 -924 -1470 -4 -25 -9 -65 -12 -90 -11 -89 -5 -350 11 -450 2
-14 6 -45 10 -70 4 -25 22 -107 42 -183 32 -122 34 -140 21 -155 -240 -280
-258 -299 -295 -310 -21 -6 -54 -26 -72 -44 -86 -83 -83 -210 5 -287 30 -27
40 -51 99 -247 63 -207 66 -220 54 -261 -13 -48 -6 -116 17 -150 12 -19 12
-31 3 -68 -34 -134 39 -293 163 -356 36 -19 42 -19 63 -5 15 10 30 36 40 68
21 72 19 84 -14 104 -36 21 -75 96 -67 128 4 16 20 29 48 41 24 9 58 31 76 48
l32 31 33 -17 c43 -23 68 -67 69 -117 0 -23 8 -49 17 -59 22 -25 106 -54 132
-46 31 10 47 59 42 129 -5 77 -37 148 -92 204 -43 44 -129 92 -166 92 -11 0
-43 24 -71 53 -44 45 -56 66 -69 122 -2 6 -26 87 -55 180 -49 157 -52 173 -41
213 6 23 11 52 11 63 0 20 46 80 136 177 l41 45 38 -69 c89 -159 189 -291 334
-439 54 -55 114 -127 134 -160 47 -76 62 -94 121 -139 76 -58 156 -89 256 -99
25 -3 74 -18 110 -35 102 -46 251 -99 329 -117 274 -64 546 -80 786 -49 761
101 1396 603 1675 1323 20 51 67 203 75 244 9 40 17 57 28 58 7 0 46 1 87 3
41 1 86 8 100 15 32 15 70 70 79 113 3 18 6 490 5 1048 -1 1128 4 1058 -67
1111 l-32 24 -685 5 -685 5 -107 43 c-165 65 -347 109 -533 128 -62 6 -323 13
-328 8z"/>
</g>
</svg>
